<svg width="34" height="34" viewBox="0 0 34 34" fill="none" xmlns="http://www.w3.org/2000/svg">
<path d="M33.5 17C33.5 25.0346 27.7599 31.7268 20.1562 33.199V22.4141H23.6174H24.0466L24.1116 21.9899L24.8653 17.0758L24.9536 16.5H24.3711H20.1562V13.8125C20.1562 13.2126 20.3038 12.6816 20.6273 12.3069C20.9391 11.9459 21.4783 11.6563 22.4254 11.6563H24.5703H25.0703V11.1563V6.97266V6.55075L24.6544 6.47978L24.5703 6.97266C24.6544 6.47978 24.6544 6.47977 24.6543 6.47976L24.6542 6.47974L24.6538 6.47967L24.6524 6.47944L24.6475 6.47862L24.6296 6.47563L24.5619 6.46465C24.5032 6.45527 24.418 6.44199 24.3101 6.42611C24.0943 6.39435 23.7878 6.35214 23.4224 6.30994C22.6937 6.2258 21.7215 6.14063 20.7652 6.14063C18.7218 6.14063 16.9778 6.76163 15.744 7.9968C14.5097 9.23246 13.8438 11.025 13.8438 13.2547V16.5H10.0273H9.52731V17V21.9141V22.4141H10.0273H13.8438V33.199C6.24009 31.7268 0.5 25.0346 0.5 17C0.5 7.88633 7.88633 0.5 17 0.5C26.1137 0.5 33.5 7.88633 33.5 17Z" fill="white" stroke="#757575"/>
</svg>
