<svg
   viewBox="0 0 45.333332 45.333332" fill="none"><defs
     id="defs6"><clipPath
       id="clipPath22"
       clipPathUnits="userSpaceOnUse"><path
         style="clip-rule:evenodd"
         id="path20"
         d="M 17,34 C 7.611183,34 0,26.388817 0,17 0,7.611185 7.611183,0 17,0 c 9.388815,0 17,7.611185 17,17 0,9.388817 -7.611185,17 -17,17 z m -3.737662,-7.988087 c 0.967087,0.04399 1.276132,0.05476 3.738511,0.05476 h -0.0028 c 2.463158,0 2.771,-0.01077 3.738158,-0.05476 0.965246,-0.0442 1.62442,-0.197059 2.202491,-0.421245 0.596842,-0.231413 1.101176,-0.541168 1.605509,-1.045502 0.504404,-0.503979 0.814158,-1.0098 1.04649,-1.606144 0.222914,-0.576513 0.375914,-1.235334 0.421247,-2.200581 0.04342,-0.967159 0.05476,-1.276132 0.05476,-3.738512 0,-2.462377 -0.01133,-2.770645 -0.05476,-3.737804 -0.04533,-0.964821 -0.198333,-1.623854 -0.421247,-2.200579 C 25.358332,10.465412 25.048578,9.959591 24.544174,9.455612 24.040407,8.951279 23.535366,8.640747 22.939232,8.409122 22.362295,8.184935 21.702696,8.032146 20.73752,7.987946 19.770363,7.943888 19.462307,7.933121 16.999716,7.933121 c -2.462167,0 -2.770999,0.010767 -3.738157,0.054825 -0.965034,0.0442 -1.624068,0.196989 -2.200935,0.421176 C 10.464633,8.640747 9.958812,8.951279 9.455046,9.455612 8.950854,9.959591 8.6411,10.465414 8.409333,11.06176 c -0.224046,0.576511 -0.376834,1.235332 -0.421246,2.200579 -0.043775,0.967086 -0.054754,1.275213 -0.054754,3.73759 0,2.46238 0.011333,2.771567 0.054613,3.738726 0.04342,0.964821 0.19642,1.623854 0.421175,2.200579 0.232333,0.596132 0.542158,1.101953 1.046491,1.605932 0.50398,0.504122 1.0098,0.813946 1.606146,1.045502 0.576512,0.224186 1.235334,0.377044 2.20058,0.421245 z" /></clipPath><clipPath
       id="clipPath38"
       clipPathUnits="userSpaceOnUse"><path
         style="clip-rule:evenodd"
         id="path36"
         d="m 16.187542,24.432762 c 0.157886,2.12e-4 0.327816,1.41e-4 0.511131,6.9e-5 l 0.302246,-6.9e-5 c 2.420802,0 2.707745,-0.0087 3.663712,-0.05213 0.884001,-0.04044 1.363758,-0.188134 1.683357,-0.312233 0.423157,-0.164334 0.724764,-0.360825 1.041956,-0.678158 0.317333,-0.317333 0.513754,-0.619579 0.678515,-1.042667 0.124099,-0.319245 0.271999,-0.798998 0.312233,-1.682999 0.04342,-0.955824 0.05284,-1.242912 0.05284,-3.662579 0,-2.419737 -0.0094,-2.706825 -0.05284,-3.662649 -0.04045,-0.884001 -0.188134,-1.363756 -0.312233,-1.683 -0.164334,-0.423094 -0.361182,-0.724416 -0.678515,-1.04154 C 23.072611,10.297474 22.771288,10.100983 22.347988,9.936649 22.028812,9.811981 21.548632,9.66465 20.664631,9.624275 19.708807,9.580784 19.421721,9.571363 17.000919,9.571363 c -2.421011,0 -2.707958,0.00942 -3.663784,0.052912 -0.884,0.0408 -1.363752,0.188488 -1.683565,0.312588 -0.423088,0.164333 -0.725334,0.360825 -1.042667,0.678158 -0.317333,0.317333 -0.513755,0.618801 -0.678513,1.042099 -0.1241,0.319175 -0.272,0.799 -0.312233,1.683 -0.043421,0.955756 -0.052133,1.242915 -0.052133,3.664139 0,2.421152 0.00871,2.706753 0.052133,3.662579 0.040446,0.884 0.188133,1.363752 0.312233,1.683353 0.164334,0.423159 0.36118,0.725332 0.678513,1.042666 0.317333,0.317333 0.619579,0.513824 1.042667,0.678512 0.3196,0.124668 0.799565,0.272001 1.683565,0.31266 0.836401,0.03775 1.160606,0.04909 2.850407,0.051 v -0.0023 z m 5.653137,-1.505493 c -0.600668,0 -1.088072,-0.486767 -1.088072,-1.087647 0,-0.600666 0.487404,-1.087997 1.088072,-1.087997 0.600666,0 1.087998,0.487331 1.087998,1.087997 0,0.600668 -0.487332,1.088002 -1.087998,1.088002 z m -9.495918,-5.927403 c 0,2.57132 2.084625,4.656086 4.655947,4.656159 2.57139,0 4.655592,-2.084766 4.655592,-4.656159 0,-2.571392 -2.084057,-4.655237 -4.655381,-4.655237 -2.57139,0 -4.656158,2.083845 -4.656158,4.655237 z" /></clipPath><clipPath
       id="clipPath54"
       clipPathUnits="userSpaceOnUse"><path
         style="clip-rule:evenodd"
         id="path52"
         d="m 17.000793,20.022186 c 1.669047,0 3.022246,-1.353058 3.022246,-3.022245 0,-1.669047 -1.353199,-3.022247 -3.022246,-3.022247 -1.669259,0 -3.022247,1.3532 -3.022247,3.022247 0,1.669187 1.352988,3.022245 3.022247,3.022245 z" /></clipPath></defs><g
     transform="matrix(1.3333333,0,0,-1.3333333,0,45.333333)"
     id="g10"><g
       id="g12"><g
         id="g14"><path
           id="path16"
           style="fill:none;fill-opacity:1;fill-rule:evenodd;stroke:none"
           d="M 17,34 C 7.611183,34 0,26.388817 0,17 0,7.611185 7.611183,0 17,0 c 9.388815,0 17,7.611185 17,17 0,9.388817 -7.611185,17 -17,17 z m -3.737662,-7.988087 c 0.967087,0.04399 1.276132,0.05476 3.738511,0.05476 h -0.0028 c 2.463158,0 2.771,-0.01077 3.738158,-0.05476 0.965246,-0.0442 1.62442,-0.197059 2.202491,-0.421245 0.596842,-0.231413 1.101176,-0.541168 1.605509,-1.045502 0.504404,-0.503979 0.814158,-1.0098 1.04649,-1.606144 0.222914,-0.576513 0.375914,-1.235334 0.421247,-2.200581 0.04342,-0.967159 0.05476,-1.276132 0.05476,-3.738512 0,-2.462377 -0.01133,-2.770645 -0.05476,-3.737804 -0.04533,-0.964821 -0.198333,-1.623854 -0.421247,-2.200579 C 25.358332,10.465412 25.048578,9.959591 24.544174,9.455612 24.040407,8.951279 23.535366,8.640747 22.939232,8.409122 22.362295,8.184935 21.702696,8.032146 20.73752,7.987946 19.770363,7.943888 19.462307,7.933121 16.999716,7.933121 c -2.462167,0 -2.770999,0.010767 -3.738157,0.054825 -0.965034,0.0442 -1.624068,0.196989 -2.200935,0.421176 C 10.464633,8.640747 9.958812,8.951279 9.455046,9.455612 8.950854,9.959591 8.6411,10.465414 8.409333,11.06176 c -0.224046,0.576511 -0.376834,1.235332 -0.421246,2.200579 -0.043775,0.967086 -0.054754,1.275213 -0.054754,3.73759 0,2.46238 0.011333,2.771567 0.054613,3.738726 0.04342,0.964821 0.19642,1.623854 0.421175,2.200579 0.232333,0.596132 0.542158,1.101953 1.046491,1.605932 0.50398,0.504122 1.0098,0.813946 1.606146,1.045502 0.576512,0.224186 1.235334,0.377044 2.20058,0.421245 z" /></g><g
         clip-path="url(#clipPath22)"
         id="g18"><g
           id="g24"><path
             id="path26"
             style="fill:currentColor;fill-opacity:1;fill-rule:nonzero;stroke:none"
             d="m 13.262338,26.011913 -0.04544,0.998967 -3.05e-4,-1.4e-5 0.04574,-0.998953 z m 7.473836,0 0.04574,0.998953 -3.09e-4,1.4e-5 -0.04544,-0.998967 z m 2.202491,-0.421245 -0.36158,-0.932343 7.5e-5,-2.7e-5 z m 1.605509,-1.045502 -0.707105,-0.707106 2.97e-4,-2.97e-4 z m 1.04649,-1.606144 0.932711,0.360638 -9.27e-4,0.0024 -0.931784,-0.363016 z m 0.421247,-2.200581 0.998995,0.04485 -9.7e-5,0.0021 -0.998898,-0.04691 z m 0,-7.476316 0.9989,-0.04693 9.3e-5,0.0021 -0.998993,0.04485 z m -0.421247,-2.200579 0.931744,-0.363132 0.001,0.0026 -0.932753,0.360523 z m -1.04649,-1.605934 -0.706808,0.707405 -6.96e-4,-6.96e-4 z m -1.604942,-1.04649 -0.362167,0.932112 -3.1e-5,-1.1e-5 z m -2.201712,-0.421176 0.04551,-0.998963 2.4e-4,10e-6 z m -7.475961,0 -0.04575,-0.998953 2.46e-4,-10e-6 0.04551,0.998963 z m -2.200935,0.421176 -0.362243,-0.932085 7e-6,-1e-6 z m -1.605578,1.04649 0.707504,0.706709 -5.46e-4,5.47e-4 z m -1.045713,1.606148 -0.932089,-0.362232 8e-6,-1.7e-5 z m -0.421246,2.200579 -0.998977,-0.04522 3.4e-5,-7.46e-4 0.998943,0.04596 z m -1.41e-4,7.476316 -0.99899,0.04496 -1.1e-5,-2.53e-4 0.999001,-0.0447 z m 0.421175,2.200579 -0.931739,0.36313 -8e-6,-2.3e-5 z m 1.046491,1.605932 0.706859,-0.707354 3.48e-4,3.48e-4 z m 1.606146,1.045502 0.36196,-0.932194 4.7e-4,1.83e-4 z M 17,35 C 7.058898,35 -1,26.941101 -1,17 h 2 c 0,8.836533 7.163468,16 16,16 z M -1,17 C -1,7.058899 7.058898,-1 17,-1 V 1 C 8.163468,1 1,8.163469 1,17 Z M 17,-1 c 9.941101,0 18,8.058899 18,18 H 33 C 33,8.163469 25.836531,1 17,1 Z m 18,18 c 0,9.941101 -8.058899,18 -18,18 v -2 c 8.836531,0 16,-7.163467 16,-16 z m -21.692225,8.012945 c 0.944492,0.04296 1.23587,0.05372 3.693074,0.05372 v 2.000002 c -2.467553,0 -2.794265,-0.01077 -3.783949,-0.05579 l 0.09087,-1.997935 z m 3.693074,2.053723 h -0.0028 v -2.000002 h 0.0028 z m -0.0028,-2.000002 c 2.457972,0 2.748152,-0.01076 3.692723,-0.05372 l 0.09087,1.997935 c -0.989747,0.04501 -1.315247,0.05579 -3.783593,0.05579 v -2.000002 z m 3.692414,-0.05371 c 0.870779,-0.03987 1.421619,-0.174283 1.886655,-0.354634 l 0.72316,1.864683 c -0.691105,0.268025 -1.458614,0.439333 -2.518327,0.487858 l -0.09149,-1.997907 z m 1.88673,-0.354661 c 0.475836,-0.184497 0.860186,-0.420515 1.259909,-0.820238 l 1.414213,1.414214 c -0.608944,0.608943 -1.233263,0.992433 -1.951111,1.270763 L 22.57716,24.658298 Z m 1.260206,-0.820535 c 0.39897,-0.398634 0.635563,-0.78446 0.821516,-1.261759 l 1.863566,0.726034 c -0.278714,0.715391 -0.661625,1.341208 -1.271464,1.950533 z m 0.820593,-1.259379 c 0.17951,-0.464264 0.314129,-1.015514 0.355053,-1.886856 l 1.997797,0.09383 c -0.04974,1.05915 -0.221125,1.825542 -0.487438,2.514303 l -1.865412,-0.721274 z m 0.354958,-1.884792 c 0.04243,-0.94519 0.05375,-1.236988 0.05375,-3.693663 h 2 c 0,2.468085 -0.01136,2.794238 -0.05576,3.783362 l -1.997987,-0.0897 z m 0.05375,-3.693663 c 0,-2.456663 -0.01131,-2.747758 -0.05375,-3.692953 l 1.997987,-0.0897 c 0.04441,0.98912 0.05576,1.314561 0.05576,3.782653 h -2 z m -0.05365,-3.69087 c -0.04092,-0.870912 -0.175539,-1.422432 -0.355099,-1.886991 l 1.865504,-0.721045 c 0.266263,0.688891 0.437646,1.455439 0.487392,2.514168 l -1.997797,0.09387 z m -0.354086,-1.884384 c -0.185961,-0.47715 -0.422575,-0.86301 -0.82156,-1.261658 l 1.413618,-1.41481 c 0.609823,0.60931 0.992714,1.235092 1.27142,1.950209 z M 23.83667,10.162321 C 23.437489,9.76269 23.052368,9.525911 22.577065,9.341234 l 0.724336,-1.864225 c 0.716963,0.278572 1.341927,0.662859 1.950277,1.271894 z M 22.577034,9.341223 C 22.113731,9.161192 21.562769,9.026787 20.691774,8.986898 l 0.09149,-1.997905 c 1.059353,0.048513 1.827591,0.219684 2.518162,0.488027 z M 20.692013,8.98691 C 19.747486,8.943882 19.457127,8.933121 16.999716,8.933121 v -2 c 2.467773,0 2.793522,0.010772 3.783312,0.055862 z M 16.999716,8.933121 c -2.456993,0 -2.748127,0.010763 -3.692651,0.053789 l -0.09101,-1.997927 c 0.989794,-0.04509 1.316324,-0.055862 3.783665,-0.055862 v 2 z m -3.692404,0.053777 c -0.870748,0.039883 -1.421149,0.174258 -1.884451,0.35431 L 10.698388,7.477036 C 11.38882,7.208714 12.156486,7.037512 13.215805,6.988993 l 0.09151,1.997905 z M 11.422868,9.341206 C 10.947224,9.526058 10.561429,9.762993 10.16255,10.162321 L 8.747541,8.748903 C 9.356195,8.139565 9.982042,7.755434 10.698381,7.477037 Z m -1.260864,0.821662 c -0.398871,0.398703 -0.635311,0.784409 -0.82059,1.261139 L 7.477252,10.699511 C 7.755506,9.983549 8.138576,9.357613 8.748088,8.748356 Z M 9.341421,11.42399 c -0.179919,0.462967 -0.31431,1.013222 -0.354391,1.884312 l -1.997886,-0.09193 c 0.048745,-1.0594 0.219929,-1.82679 0.4881,-2.516847 l 1.864177,0.724462 z m -0.354357,1.883568 c -0.042762,0.944731 -0.053731,1.235378 -0.053731,3.692371 h -2 c 0,-2.467763 0.01099,-2.793365 0.055777,-3.782808 l 1.997954,0.09044 z m -0.053731,3.692371 c 0,2.456667 0.011313,2.748743 0.053612,3.694022 l -1.998,0.08941 C 6.944687,19.794319 6.933333,19.468023 6.933333,16.999929 Z m 0.053602,3.693766 c 0.039149,0.869915 0.17362,1.419743 0.353933,1.882431 L 7.477374,23.302341 C 7.208178,22.611578 7.036648,21.84334 6.988956,20.783611 l 1.997979,-0.08992 z m 0.353924,1.882408 c 0.185939,0.477093 0.422618,0.862995 0.821612,1.261709 l -1.413717,1.41471 C 8.139081,24.643276 7.75611,24.017536 7.477382,23.302364 Z m 0.82196,1.262057 c 0.39877,0.398881 0.784447,0.635313 1.260899,0.820314 l -0.72392,1.864387 C 9.98356,26.244753 9.357594,25.861534 8.748406,25.252174 Z m 1.261369,0.820497 c 0.462872,0.179997 1.012988,0.314423 1.883894,0.354302 l -0.09149,1.997907 c -1.059587,-0.04852 -1.827114,-0.219808 -2.517267,-0.488188 l 0.72486,-1.864021 z" /></g></g></g><g
       id="g28"><g
         transform="translate(9.568024,9.57135)"
         id="g30"><path
           id="path32"
           style="fill:none;fill-opacity:1;fill-rule:evenodd;stroke:none"
           d="m 6.619517,14.861412 c 0.157888,2.12e-4 0.327817,1.4e-4 0.511134,7e-5 l 0.302246,-7e-5 c 2.4208,0 2.707744,-0.0087 3.663711,-0.05213 0.884,-0.04045 1.363756,-0.188134 1.683356,-0.312233 0.423158,-0.164334 0.724764,-0.360826 1.041956,-0.678159 0.317334,-0.317333 0.513755,-0.61958 0.678514,-1.042667 0.1241,-0.319245 0.271999,-0.798998 0.312233,-1.682999 0.04342,-0.955824 0.05284,-1.242913 0.05284,-3.662579 0,-2.419737 -0.0094,-2.706824 -0.05284,-3.662649 -0.04045,-0.884 -0.188133,-1.363755 -0.312233,-1.683001 C 14.336101,1.661904 14.139254,1.360579 13.82192,1.043458 13.504587,0.726125 13.203264,0.529633 12.779964,0.365299 12.460789,0.240632 11.980608,0.093301 11.096608,0.052925 10.140783,0.009434 9.853697,1.3e-5 7.432897,1.3e-5 c -2.421013,0 -2.70796,0.009421 -3.663785,0.052912 -0.884,0.0408 -1.363753,0.188488 -1.683566,0.312588 C 1.662459,0.529846 1.360212,0.726338 1.042879,1.043672 0.725546,1.361005 0.529125,1.662471 0.364366,2.085771 0.240266,2.404946 0.092367,2.88477 0.052133,3.76877 0.008712,4.724524 0,5.011683 0,7.432909 c 0,2.421153 0.008712,2.706753 0.052133,3.662579 0.040446,0.883999 0.188133,1.363753 0.312233,1.683353 0.164334,0.423158 0.36118,0.725333 0.678513,1.042666 0.317333,0.317334 0.61958,0.513825 1.042667,0.678513 0.3196,0.124666 0.799566,0.272 1.683566,0.312658 0.8364,0.03775 1.160605,0.04909 2.850405,0.051 v -0.0023 z m 5.653138,-1.505492 c -0.600667,0 -1.088071,-0.486767 -1.088071,-1.087647 0,-0.600666 0.487404,-1.087999 1.088071,-1.087999 0.600667,0 1.087999,0.487333 1.087999,1.087999 0,0.600667 -0.487332,1.088001 -1.087999,1.088001 z M 2.776738,7.428516 c 0,2.57132 2.084624,4.656087 4.655945,4.656159 2.571392,0 4.655593,-2.084768 4.655593,-4.656159 0,-2.571392 -2.084058,-4.655237 -4.655379,-4.655237 -2.571392,0 -4.656159,2.083845 -4.656159,4.655237 z" /></g><g
         clip-path="url(#clipPath38)"
         id="g34"><g
           transform="translate(9.568024,9.57135)"
           id="g40"><path
             id="path42"
             style="fill:currentColor;fill-opacity:1;fill-rule:nonzero;stroke:none"
             d="m 6.619517,14.861412 h -1 v -1.001347 l 1.001346,0.0013 -0.00135,1 z m 0.511134,7e-5 -3.87e-4,-1 h 1.54e-4 z m 0.302246,-7e-5 -2.33e-4,-1 h 2.33e-4 z m 3.663711,-0.05213 0.04571,0.998955 -3.32e-4,1.5e-5 -0.04537,-0.99897 z m 1.683356,-0.312233 0.362009,0.932174 -4.1e-5,1.6e-5 z m 1.041956,-0.678159 -0.707265,-0.706948 1.59e-4,-1.59e-4 z m 0.678514,-1.042667 0.932054,0.362317 -2.17e-4,5.59e-4 z m 0.312233,-1.682999 0.998969,0.04538 -4e-6,8.5e-5 -0.998965,-0.04547 z m 0,-7.325228 0.998955,-0.045705 1.4e-5,3.24e-4 z m -0.312233,-1.683001 -0.932056,0.362317 -9.9e-5,-2.54e-4 z M 13.82192,1.043458 13.11505,1.750802 13.114814,1.750566 Z m -1.041956,-0.678159 -0.361905,0.932218 -0.0019,-7.5e-4 0.363822,-0.931468 z m -1.683356,-0.312374 0.04546,-0.998966 1.71e-4,8e-6 -0.04563,0.998958 z m -7.327496,0 -0.046105,-0.998937 6.51e-4,-2.9e-5 z m -1.683566,0.312588 -0.362062,-0.932155 3.04e-4,-1.17e-4 z m -1.72118,1.720258 -0.932028,-0.362386 1.29e-4,-3.31e-4 z M 0.052133,3.76877 -0.946836,3.723386 l 3e-6,-8.1e-5 z m 0,7.326718 -0.998955,0.0457 -1.5e-5,-3.24e-4 0.99897,-0.04538 z m 0.312233,1.683353 -0.932174,0.362009 -1.6e-5,-4.2e-5 z m 1.72118,1.721179 0.36274,-0.931891 6.63e-4,2.58e-4 z m 1.683566,0.312658 -0.045093,0.998984 -8.52e-4,-3.9e-5 z m 2.850405,0.051 h 1 v 1.001133 l -1.001131,-0.0011 0.00113,-0.999999 z m 5.653138,-1.507758 v -1 h 1 v 1 z m 0,3.54e-4 v 1 h -1 v -1 z M 7.432683,12.084675 v 0.999999 h -2.7e-5 z m -0.81182,1.776737 c 0.156847,2.12e-4 0.325841,1.41e-4 0.509401,7e-5 l 7.73e-4,2 c -0.183074,7e-5 -0.353937,1.43e-4 -0.512865,-7.1e-5 z m 0.509555,7e-5 0.302246,-7e-5 4.65e-4,2 -0.302246,7e-5 z m 0.302479,-7e-5 c 2.41696,0 2.685642,-0.0087 3.618337,-0.0511 l 0.09075,1.99794 c -0.979237,0.04448 -1.284446,0.05316 -3.709085,0.05316 v -2 z m 3.618006,-0.05109 c 0.773707,-0.0354 1.146761,-0.159914 1.367093,-0.245469 l 0.723936,1.864381 c -0.418869,0.162646 -1.005326,0.333506 -1.999618,0.378997 l -0.09141,-1.997909 z m 1.367051,-0.245453 c 0.294889,-0.114519 0.478616,-0.23475 0.696701,-0.452932 l 1.414529,1.413897 c -0.416297,0.416484 -0.835782,0.689237 -1.387211,0.903384 z m 0.69686,-0.453091 c 0.217844,-0.217844 0.338486,-0.402362 0.453782,-0.698435 l 1.863675,0.725751 c -0.21422,0.550103 -0.486422,0.970076 -0.903244,1.386898 z m 0.453564,-0.697876 c 0.08547,-0.219878 0.210123,-0.592729 0.245323,-1.366149 l 1.997931,0.09093 c -0.04527,0.99458 -0.216416,1.581236 -0.379144,1.99985 L 13.568378,12.4139 Z m 0.245319,-1.366064 c 0.04238,-0.932879 0.05181,-1.202002 0.05181,-3.617198 h 2 c 0,2.424137 -0.0094,2.729189 -0.05387,3.70796 l -1.997939,-0.09076 z m 0.05181,-3.617198 c 0,-2.415267 -0.0094,-2.684389 -0.05181,-3.617268 L 15.811636,3.72261 c 0.04446,0.978772 0.05387,1.283823 0.05387,3.70803 z m -0.0518,-3.616943 c -0.0354,-0.773788 -0.159938,-1.14671 -0.245334,-1.36639 l 1.86411,-0.724633 c 0.162804,0.418811 0.333645,1.005399 0.379134,1.999612 z M 13.568279,2.447054 C 13.454035,2.152922 13.333714,1.96932 13.11505,1.750802 l 1.41374,-1.414687 c 0.416003,0.415724 0.689375,0.834771 0.903798,1.386814 z M 13.114814,1.750566 C 12.896328,1.53208 12.712781,1.411931 12.41806,1.297515 l 0.723809,-1.864431 c 0.551879,0.21425 0.970977,0.487087 1.387158,0.903267 z M 12.416142,1.296767 C 12.198184,1.211636 11.825459,1.087256 11.050982,1.051885 l 0.09125,-1.997918 c 0.993523,0.045377 1.58116,0.215662 2.001552,0.379864 z M 11.051154,1.051892 C 10.118323,1.009446 9.849241,1.000013 7.432897,1.000013 v -2 c 2.425255,0 2.730346,0.009408 3.709166,0.053946 z M 7.432897,1.000013 c -2.416557,0 -2.6855,0.00943 -3.61833,0.051879 L 3.723658,-0.946041 c 0.978819,-0.044538 1.28377,-0.053946 3.709239,-0.053946 z M 3.815217,1.051862 C 3.041364,1.087579 2.668099,1.212108 2.447305,1.297785 L 1.723788,-0.566759 C 2.142619,-0.729282 2.72886,-0.900127 3.723007,-0.946011 Z M 2.447608,1.297667 C 2.152221,1.412399 1.967898,1.532866 1.749986,1.750778 L 0.335772,0.336565 C 0.752527,-0.08019 1.172697,-0.352708 1.723484,-0.566642 Z M 1.749986,1.750778 C 1.531662,1.969102 1.411293,2.152958 1.296266,2.448488 L -0.567533,1.723054 C -0.353044,1.171985 -0.080571,0.752909 0.335772,0.336565 Z M 1.296394,2.448157 C 1.21096,2.667888 1.086301,3.040783 1.051099,3.814237 L -0.946833,3.723305 c 0.045265,-0.994547 0.216406,-1.5813 0.379171,-1.99992 z M 1.051103,3.814155 C 1.00874,4.746626 1,5.015512 1,7.432909 H -1 C -1,5.007854 -0.991315,4.702423 -0.946836,3.723386 Z M 1,7.432909 c 0,2.417301 0.00874,2.684641 0.051103,3.617197 l -1.99794,0.09076 C -0.991314,10.161774 -1,9.857914 -1,7.432909 Z m 0.051088,3.616873 c 0.0354,0.773706 0.159914,1.146758 0.245469,1.367091 l -1.864381,0.723935 C -0.73047,12.721941 -0.90133,12.135486 -0.946822,11.141192 Z m 0.245453,1.367049 c 0.114524,0.294899 0.235142,0.479266 0.453445,0.69757 L 0.335772,14.528614 C -0.080592,14.11225 -0.353665,13.692267 -0.567808,13.14085 Z m 0.453445,0.69757 c 0.217913,0.217913 0.402419,0.338556 0.6983,0.453729 L 1.722807,15.431911 C 1.172513,15.217708 0.752525,14.945367 0.335772,14.528614 Z m 0.698963,0.453986 c 0.218849,0.08537 0.591632,0.209726 1.366108,0.245347 l -0.09189,1.997889 C 2.729644,15.765926 2.142495,15.595618 1.722144,15.431652 Z m 1.365256,0.245309 c 0.817477,0.0369 1.126283,0.04808 2.806444,0.04998 l -0.00226,1.999998 c -1.69944,-0.0019 -2.039044,-0.01341 -2.894367,-0.05202 l 0.090186,-1.997965 z m 1.805312,1.049982 v -0.0023 h 2 v 0.0023 z m 6.653138,-0.507758 c -1.152317,0 -2.088071,-0.933848 -2.088071,-2.087647 h 2 c 0,0.04796 0.03905,0.08765 0.08807,0.08765 v 2 z m -2.088071,-2.087647 c 0,-1.153036 0.935204,-2.087998 2.088071,-2.087998 v 1.999999 c -0.04847,0 -0.08807,0.0397 -0.08807,0.088 h -2 z m 2.088071,-2.087998 c 1.152951,0 2.087999,0.935047 2.087999,2.087998 h -2 c 0,-0.04838 -0.03962,-0.088 -0.088,-0.088 v -1.999999 z m 2.087999,2.087998 c 0,1.152952 -0.935047,2.088001 -2.087999,2.088001 v -2 c 0.04838,0 0.088,-0.03962 0.088,-0.088 h 2 z m -3.087999,1.088001 v -3.54e-4 h 2 v 3.54e-4 z M 3.776738,7.428516 c 0,2.01907 1.63695,3.656103 3.655973,3.656159 l -5.5e-5,1.999999 C 4.309037,13.084588 1.776738,10.552087 1.776738,7.428516 Z m 3.655945,3.656159 c 2.018949,0 3.655593,-1.636894 3.655593,-3.656159 h 2 c 0,3.123518 -2.531757,5.656158 -5.655593,5.656158 z m 3.655593,-3.656159 c 0,-2.019057 -1.636294,-3.655237 -3.655379,-3.655237 v -2 c 3.123556,0 5.655379,2.531511 5.655379,5.655237 z M 7.432897,3.773279 c -2.019365,0 -3.656159,1.636388 -3.656159,3.655237 h -2 c 0,-3.123933 2.53274,-5.655237 5.656159,-5.655237 z" /></g></g></g><g
       id="g44"><g
         transform="translate(13.978546,13.977692)"
         id="g46"><path
           id="path48"
           style="fill:none;fill-opacity:1;fill-rule:nonzero;stroke:none"
           d="m 3.022247,6.044495 c 1.669046,0 3.022246,-1.353058 3.022246,-3.022246 C 6.044493,1.353203 4.691293,2e-6 3.022247,2e-6 1.352988,2e-6 0,1.353203 0,3.022249 0,4.691437 1.352988,6.044495 3.022247,6.044495 Z" /></g><g
         clip-path="url(#clipPath54)"
         id="g50"><g
           transform="translate(13.978546,13.977692)"
           id="g56"><path
             id="path58"
             style="fill:currentColor;fill-opacity:1;fill-rule:nonzero;stroke:none"
             d="m 3.022247,5.044495 c 1.116792,0 2.022246,-0.905373 2.022246,-2.022246 h 2 c 0,2.221503 -1.800946,4.022246 -4.022246,4.022246 z M 5.044493,3.022249 c 0,-1.116762 -0.905485,-2.022247 -2.022246,-2.022247 v -2 c 2.221331,0 4.022246,1.800917 4.022246,4.022247 z M 3.022247,1.000002 C 1.905319,1.000002 1,1.905442 1,3.022249 H -1 C -1,0.800964 0.800658,-0.999998 3.022247,-0.999998 Z M 1,3.022249 c 0,1.116918 0.905288,2.022246 2.022247,2.022246 v 2 C 0.800689,7.044495 -1,5.243707 -1,3.022249 Z" /></g></g></g></g></svg>