<svg width="34" height="34" viewBox="0 0 34 34" fill="none" xmlns="http://www.w3.org/2000/svg">
<path d="M13.2395 7.48861L13.2396 7.4886C14.2176 7.44412 14.5356 7.43334 16.998 7.43333L13.2395 7.48861ZM13.2395 7.48861C12.2272 7.53497 11.5141 7.697 10.8808 7.94324L13.2395 7.48861ZM20.7589 7.4886L20.759 7.48861C21.7715 7.53497 22.4848 7.69705 23.1194 7.94315L20.7589 7.4886ZM20.7589 7.4886C19.7808 7.44412 19.464 7.43334 17.0008 7.43333L20.7589 7.4886ZM26.0566 10.8795L26.057 10.8807C26.3016 11.5133 26.4638 12.2259 26.5114 13.2381L26.5114 13.2391C26.5553 14.2173 26.5667 14.5348 26.5667 17.0001C26.5667 19.4653 26.5553 19.7822 26.5114 20.7603L26.5114 20.7613C26.4638 21.7731 26.3016 22.4859 26.057 23.1187L26.0565 23.12C25.801 23.7756 25.4548 24.3413 24.8978 24.8979C24.3418 25.4545 23.7768 25.8019 23.1203 26.0569C22.4866 26.3032 21.7727 26.4652 20.7604 26.5115L20.7603 26.5115C19.7818 26.5561 19.4649 26.5669 16.9997 26.5669C14.535 26.5669 14.2173 26.5561 13.2388 26.5115L13.2387 26.5115C12.2265 26.4652 11.5132 26.3032 10.8795 26.0569L11.0606 25.5909L10.8795 26.0569C10.2234 25.802 9.65769 25.4547 9.10157 24.898C8.54471 24.3414 8.1983 23.7755 7.94329 23.1194L8.40455 22.9401L7.94329 23.1194C7.69718 22.4861 7.53519 21.773 7.48862 20.7606L7.4886 20.7603C7.44432 19.782 7.43333 19.4651 7.43333 17.0001C7.43333 14.5348 7.44468 14.2171 7.48845 13.239L7.48845 13.2389C7.53401 12.2266 7.69627 11.513 7.94325 10.8792L7.94325 10.8792C8.19876 10.2236 8.54511 9.65788 9.10201 9.10133C9.65853 8.54466 10.2243 8.19815 10.8805 7.94333L26.0566 10.8795ZM26.0566 10.8795C25.8011 10.2237 25.4548 9.65788 24.8977 9.10128L26.0566 10.8795ZM0.5 17C0.5 7.88733 7.88733 0.5 17 0.5C26.1127 0.5 33.5 7.88733 33.5 17C33.5 26.1127 26.1127 33.5 17 33.5C7.88733 33.5 0.5 26.1127 0.5 17ZM24.8976 9.10113C24.341 8.54459 23.7767 8.19801 23.1195 7.94316L24.8976 9.10113Z" />
<path d="M15.6875 10.0679V10.0659C14.4289 10.0696 14.0973 10.0822 13.3599 10.1155C12.5308 10.1536 12.1045 10.2894 11.8353 10.3944L11.8349 10.3946C11.4755 10.5345 11.2321 10.6931 10.9645 10.9607C10.6966 11.2285 10.5379 11.4718 10.3985 11.8308L15.6875 10.0679ZM15.6875 10.0679L16.1882 10.0672M15.6875 10.0679L16.1882 10.0672M16.1882 10.0672C16.3425 10.067 16.5083 10.0671 16.6876 10.0672L16.6985 10.0672H16.6986M16.1882 10.0672L16.6986 10.0672M16.6986 10.0672L17.0008 10.0672H17.0009M16.6986 10.0672L17.0009 10.0672M17.0009 10.0672C19.4197 10.0672 19.6976 10.076 20.6418 10.1188L17.0009 10.0672ZM23.0364 10.9633L23.0363 10.9632C22.7687 10.6955 22.526 10.5371 22.167 10.3977L23.0364 10.9633ZM23.0364 10.9633C23.3039 11.2308 23.4624 11.4742 23.6024 11.8336L23.0364 10.9633ZM23.6024 22.1626L23.6024 22.1625C23.7072 21.8931 23.8433 21.4668 23.8812 20.638C23.9241 19.6936 23.9335 19.4155 23.9335 16.998C23.9335 14.5806 23.9241 14.3025 23.8812 13.3582L23.6024 22.1626ZM23.6024 22.1626C23.4631 22.5212 23.3045 22.7637 23.0365 23.0315L23.0364 23.0316M23.6024 22.1626L23.0364 23.0316M23.0364 23.0316C22.7685 23.2995 22.526 23.4579 22.167 23.5972L22.1661 23.5976M23.0364 23.0316L22.1661 23.5976M22.1661 23.5976C21.8975 23.7025 21.4711 23.8384 20.6419 23.8762L22.1661 23.5976ZM10.9645 23.0314C11.232 23.299 11.4753 23.4575 11.8344 23.597L10.9645 23.0314ZM10.9645 23.0314C10.6967 22.7636 10.5383 22.521 10.3984 22.1617L10.9645 23.0314ZM10.068 16.9957C10.068 19.415 10.0767 19.6931 10.1196 20.6371L10.068 16.9957ZM10.068 16.9957C10.068 14.5767 10.0767 14.3001 10.1196 13.356L10.068 16.9957ZM21.8407 10.5724H21.3407V10.653C20.7089 10.8624 20.2526 11.4579 20.2526 12.1604C20.2526 13.0372 20.9639 13.7484 21.8407 13.7484C22.7175 13.7484 23.4287 13.0372 23.4287 12.1604C23.4287 11.2836 22.7175 10.5724 21.8407 10.5724ZM17.0007 11.844H17.0007C14.1532 11.8441 11.8448 14.1527 11.8448 17.0001C11.8448 19.8478 14.1535 22.1554 17.0009 22.1554C19.8484 22.1554 22.1563 19.8477 22.1563 17.0001C22.1563 14.1527 19.8483 11.844 17.0007 11.844ZM20.6419 10.1189C21.4707 10.1568 21.897 10.2929 22.167 10.3977L20.6419 10.1189ZM23.6025 11.8339C23.7073 12.1034 23.8435 12.5297 23.8812 13.3581L23.6025 11.8339ZM20.6418 23.8762C19.6976 23.9192 19.4194 23.9286 17.0009 23.9286C14.5821 23.9286 14.3042 23.9192 13.3599 23.8762C12.5313 23.838 12.1049 23.7019 11.8346 23.5971L20.6418 23.8762ZM10.3983 22.1615C10.2936 21.8921 10.1574 21.4657 10.1196 20.6372L10.3983 22.1615ZM10.1196 13.3559C10.1576 12.5271 10.2937 12.1008 10.3985 11.8308L10.1196 13.3559Z"/>
<path d="M17.0008 14.4778C18.3937 14.4778 19.523 15.607 19.523 17.0001C19.523 18.393 18.3937 19.5223 17.0008 19.5223C15.6077 19.5223 14.4785 18.393 14.4785 17.0001C14.4785 15.607 15.6077 14.4778 17.0008 14.4778Z" />
</svg>
