<svg
  width="207"
  height="38"
  viewBox="0 0 207 38"
  xmlns="http://www.w3.org/2000/svg"
  fill="currentColor"
>
  <path d="M25.6978 7.02344C26.1197 8.10156 26.3306 9.32812 26.3306 10.7031C26.3306 12.0781 26.1119 13.3281 25.6744 14.4531C25.2525 15.5781 24.6353 16.5469 23.8228 17.3594C22.2759 18.9062 20.0025 19.9922 17.0025 20.6172L17.4244 19.8438L26.6822 33.9062L28.3228 34.6328L31.6275 35.0078V37H23.5884L13.0416 20.1484L15.0103 20.9922H8.72906V34.4688L12.2447 35.0078V37H0.760315V35.0078L4.39313 34.4688V4.1875L0.760315 3.64844V1.65625H12.315C19.7994 1.65625 24.2603 3.44531 25.6978 7.02344ZM8.72906 4.49219V18.4609H12.1978C17.2603 18.4609 20.3228 16.9844 21.3853 14.0312C21.7134 13.1406 21.8775 12.1797 21.8775 11.1484C21.8775 10.1016 21.7291 9.16406 21.4322 8.33594C21.1353 7.50781 20.6353 6.8125 19.9322 6.25C18.4791 5.07812 16.0181 4.49219 12.5494 4.49219H8.72906ZM33.2484 1.624C33.8884 1.624 34.4484 1.848 34.9284 2.296C35.4404 2.712 35.6964 3.384 35.6964 4.312C35.6964 5.208 35.4404 5.88 34.9284 6.328C34.4484 6.776 33.8884 7 33.2484 7C32.5444 7 31.9524 6.776 31.4724 6.328C30.9924 5.88 30.7524 5.208 30.7524 4.312C30.7524 3.384 30.9924 2.712 31.4724 2.296C31.9524 1.848 32.5444 1.624 33.2484 1.624ZM35.3124 11.272V37H31.0884V11.272H35.3124ZM49.7034 37.48C47.4314 37.48 45.3994 37.016 43.6074 36.088C41.8474 35.16 40.4554 33.72 39.4314 31.768C38.4394 29.816 37.9434 27.32 37.9434 24.28C37.9434 21.112 38.4714 18.536 39.5274 16.552C40.5834 14.568 42.0074 13.112 43.7994 12.184C45.6234 11.256 47.6874 10.792 49.9914 10.792C51.3034 10.792 52.5674 10.936 53.7834 11.224C54.9994 11.48 55.9914 11.8 56.7594 12.184L55.4634 15.688C54.6954 15.4 53.7994 15.128 52.7754 14.872C51.7514 14.616 50.7914 14.488 49.8954 14.488C44.8394 14.488 42.3114 17.736 42.3114 24.232C42.3114 27.336 42.9194 29.72 44.1354 31.384C45.3834 33.016 47.2234 33.832 49.6554 33.832C51.0634 33.832 52.2954 33.688 53.3514 33.4C54.4394 33.112 55.4314 32.76 56.3274 32.344V36.088C55.4634 36.536 54.5034 36.872 53.4474 37.096C52.4234 37.352 51.1754 37.48 49.7034 37.48ZM62.5899 0.519998V11.224C62.5899 12.504 62.5099 13.704 62.3499 14.824H62.6379C63.4699 13.512 64.5899 12.52 65.9979 11.848C67.4379 11.176 68.9899 10.84 70.6539 10.84C73.7899 10.84 76.1419 11.592 77.7099 13.096C79.2779 14.568 80.0619 16.952 80.0619 20.248V37H75.8859V20.536C75.8859 16.408 73.9659 14.344 70.1259 14.344C67.2459 14.344 65.2619 15.16 64.1739 16.792C63.1179 18.392 62.5899 20.696 62.5899 23.704V37H58.3659V0.519998H62.5899ZM110.603 20.6172H101.532V34.4688L106.853 35.0078V37H93.5634V35.0078L97.1259 34.4688V4.1875L93.5634 3.64844V1.65625H117.423L117.962 8.61719H115.899L114.634 4.49219H101.532V17.7812H110.603L111.306 15.2969H112.759V23.1016H111.306L110.603 20.6172ZM124.131 37H119.907V0.519998H124.131V37ZM137.946 10.84C141.082 10.84 143.402 11.528 144.906 12.904C146.41 14.28 147.162 16.472 147.162 19.48V37H144.09L143.274 33.352H143.082C141.962 34.76 140.778 35.8 139.53 36.472C138.314 37.144 136.618 37.48 134.442 37.48C132.106 37.48 130.17 36.872 128.634 35.656C127.098 34.408 126.33 32.472 126.33 29.848C126.33 27.288 127.338 25.32 129.354 23.944C131.37 22.536 134.474 21.768 138.666 21.64L143.034 21.496V19.96C143.034 17.816 142.57 16.328 141.642 15.496C140.714 14.664 139.402 14.248 137.706 14.248C136.362 14.248 135.082 14.456 133.866 14.872C132.65 15.256 131.514 15.704 130.458 16.216L129.162 13.048C130.282 12.44 131.61 11.928 133.146 11.512C134.682 11.064 136.282 10.84 137.946 10.84ZM142.986 24.424L139.194 24.568C135.994 24.696 133.77 25.208 132.522 26.104C131.306 27 130.698 28.264 130.698 29.896C130.698 31.336 131.13 32.392 131.994 33.064C132.89 33.736 134.026 34.072 135.402 34.072C137.578 34.072 139.386 33.48 140.826 32.296C142.266 31.08 142.986 29.224 142.986 26.728V24.424ZM156.692 37L146.948 11.272H151.46L156.932 26.44C157.188 27.144 157.46 27.928 157.748 28.792C158.036 29.656 158.292 30.488 158.516 31.288C158.74 32.056 158.9 32.712 158.996 33.256H159.188C159.316 32.712 159.492 32.04 159.716 31.24C159.972 30.44 160.244 29.608 160.532 28.744C160.852 27.88 161.124 27.112 161.348 26.44L166.82 11.272H171.332L161.54 37H156.692ZM181.259 10.792C183.467 10.792 185.355 11.272 186.923 12.232C188.523 13.192 189.739 14.552 190.571 16.312C191.435 18.04 191.867 20.072 191.867 22.408V24.952H174.251C174.315 27.864 175.051 30.088 176.459 31.624C177.899 33.128 179.899 33.88 182.459 33.88C184.091 33.88 185.531 33.736 186.779 33.448C188.059 33.128 189.371 32.68 190.715 32.104V35.8C189.403 36.376 188.107 36.792 186.827 37.048C185.547 37.336 184.027 37.48 182.267 37.48C179.835 37.48 177.675 36.984 175.787 35.992C173.931 35 172.475 33.528 171.419 31.576C170.395 29.592 169.883 27.176 169.883 24.328C169.883 21.512 170.347 19.096 171.275 17.08C172.235 15.064 173.563 13.512 175.259 12.424C176.987 11.336 178.987 10.792 181.259 10.792ZM181.211 14.248C179.195 14.248 177.595 14.904 176.411 16.216C175.259 17.496 174.571 19.288 174.347 21.592H187.451C187.419 19.416 186.907 17.656 185.915 16.312C184.923 14.936 183.355 14.248 181.211 14.248ZM198.561 37H194.337V0.519998H198.561V37ZM206.856 37H202.632V0.519998H206.856V37Z" />
</svg>