<svg viewBox="0 0 34 34" fill="none" xmlns="http://www.w3.org/2000/svg">
  <path d="M23.0175 18.0302C23.2345 17.5081 23.444 16.7912 23.599 16.1037C23.7529 15.4215 23.864 14.7208 23.864 14.238C23.864 13.9585 23.8793 13.9211 23.9043 13.875C23.9535 13.7845 24.0651 13.6579 24.4165 13.3095C24.6207 13.1096 24.8182 12.9009 24.975 12.7253C25.1179 12.5653 25.2627 12.3938 25.3277 12.2846L25.3348 12.2726L25.3413 12.2601C25.3557 12.2325 25.3739 12.1974 25.3896 12.1633C25.4029 12.1345 25.4293 12.0752 25.4444 12.0042C25.4565 11.9474 25.4898 11.7548 25.3549 11.5713C25.215 11.381 25.013 11.3588 24.9437 11.3555C24.8633 11.3518 24.7919 11.365 24.7511 11.3736C24.7253 11.3791 24.6988 11.3856 24.6723 11.3927C24.6851 11.3729 24.6977 11.3533 24.71 11.3338C24.795 11.1989 24.8726 11.0622 24.931 10.938C24.9601 10.8761 24.9878 10.8103 25.009 10.7447C25.0279 10.6865 25.053 10.5951 25.053 10.4925C25.053 10.3779 25.0138 10.2542 24.9235 10.1533C24.8417 10.062 24.7478 10.0224 24.6899 10.0048C24.5848 9.97298 24.4942 9.98266 24.4658 9.98587C24.3907 9.99436 24.3208 10.0162 24.2761 10.0316C24.1746 10.0665 24.0546 10.1206 23.9369 10.1835L23.9368 10.1834L23.9279 10.1884C23.7622 10.2814 23.3284 10.449 22.9811 10.5542L22.9811 10.5541L22.9746 10.5562L22.5641 10.6867L22.1824 10.4271L22.1805 10.4258C21.8438 10.1991 21.3435 9.92719 21.0356 9.83389L21.0356 9.83375L21.0241 9.83058C20.6604 9.72976 20.2252 9.6917 19.8158 9.7015C19.4082 9.71126 18.9833 9.7695 18.644 9.88869L18.644 9.88866L18.6389 9.8905C16.9598 10.5007 15.8748 12.0836 15.991 13.8375C13.9421 13.5752 12.1526 12.691 10.6229 11.193C10.6225 11.1926 10.6221 11.1921 10.6216 11.1917L9.83954 10.414L9.27755 9.85522L9.01519 10.6031L8.81303 11.1793L8.81297 11.1793L8.81049 11.1867C8.42794 12.3345 8.53887 13.5533 9.11972 14.5369C9.11959 14.5369 9.11947 14.5368 9.11935 14.5368C9.08795 14.5336 9.03051 14.5293 8.96436 14.5381L8.96371 14.5382C8.92934 14.5428 8.74994 14.5667 8.62061 14.7301C8.53754 14.8331 8.51558 14.9403 8.50881 14.9758C8.49786 15.0332 8.49633 15.0854 8.49659 15.1214C8.49712 15.1954 8.50633 15.2739 8.51713 15.3442C8.53937 15.4891 8.57895 15.6656 8.626 15.8437C8.71755 16.1904 8.85633 16.6143 8.99558 16.8812C9.23049 17.3367 9.60958 17.7704 10.0536 18.1249C10.0107 18.1565 9.96773 18.1968 9.92965 18.2484C9.85147 18.3542 9.82364 18.4667 9.81725 18.5568C9.8079 18.6886 9.84518 18.8175 9.85948 18.867C9.86046 18.8704 9.86133 18.8734 9.86208 18.8761L9.86198 18.8761L9.86487 18.8856C10.0197 19.3937 10.3835 19.8699 10.8205 20.2563C11.1904 20.5834 11.6376 20.8686 12.1176 21.0716C11.3073 21.4818 10.3856 21.7136 9.46435 21.7334L9.46391 21.7334C9.18599 21.7396 8.92877 21.7552 8.73622 21.7748C8.64198 21.7844 8.55255 21.796 8.48058 21.8102C8.44803 21.8166 8.3983 21.8274 8.34805 21.8458C8.32613 21.8538 8.27455 21.8736 8.21932 21.9121L8.21922 21.9122C8.19086 21.9319 8 22.0648 8 22.3293C8 22.4545 8.0452 22.5471 8.07117 22.5921C8.09954 22.6413 8.13067 22.6775 8.15135 22.6996C8.19264 22.7437 8.23665 22.7782 8.26778 22.8011C8.33329 22.8493 8.4137 22.898 8.49451 22.9435C8.66016 23.0368 8.88132 23.1466 9.12138 23.2574C9.60031 23.4785 10.1955 23.722 10.6457 23.8629L10.6478 23.8635C13.312 24.6843 16.4665 24.3336 18.8496 22.928L18.8499 22.9278C20.5538 21.9212 22.2292 19.9498 23.0175 18.0302ZM23.0175 18.0302C23.0173 18.0306 23.0172 18.031 23.017 18.0314L22.5553 17.8394L23.0179 18.0293C23.0177 18.0296 23.0176 18.0299 23.0175 18.0302ZM24.4831 11.741C24.4831 11.7411 24.4826 11.7422 24.4816 11.7445C24.4825 11.7421 24.4831 11.7409 24.4831 11.741ZM24.6142 10.9732C24.6141 10.9732 24.6134 10.9734 24.6121 10.9737L24.6142 10.9732ZM24.0598 10.4292C24.0599 10.429 24.0597 10.4302 24.0588 10.4329C24.0594 10.4306 24.0598 10.4293 24.0598 10.4292ZM0.5 17C0.5 7.88733 7.88733 0.5 17 0.5C26.1127 0.5 33.5 7.88733 33.5 17C33.5 26.1127 26.1127 33.5 17 33.5C7.88733 33.5 0.5 26.1127 0.5 17Z" />
</svg>
