<svg width="34" height="34" viewBox="0 0 34 34" fill="none" xmlns="http://www.w3.org/2000/svg">
<path d="M17 10.7667L17.0001 10.2667H17.0003H17.0012L17.0044 10.2667L17.0169 10.2667L17.0652 10.2668L17.2488 10.2674C17.4075 10.2682 17.6356 10.2697 17.9136 10.2728C18.4694 10.2789 19.2258 10.2911 20.0272 10.3155C20.8278 10.34 21.6774 10.3767 22.4183 10.4322C23.1449 10.4866 23.8105 10.5618 24.2171 10.6737C25.1744 10.9365 25.9191 11.7066 26.1715 12.6756C26.3755 13.4571 26.4714 14.6247 26.5187 15.5619C26.5427 16.0378 26.5547 16.4672 26.5607 16.7776C26.5637 16.933 26.5652 17.0588 26.5659 17.146L26.5666 17.2469L26.5667 17.2736L26.5667 17.2806L26.5667 17.2825V17.2831V17.2832L26.0667 17.2833L26.5667 17.2834V17.2836V17.2841L26.5667 17.286L26.5667 17.2931L26.5666 17.3198L26.5659 17.4207C26.5652 17.5079 26.5637 17.6337 26.5607 17.789C26.5547 18.0994 26.5427 18.5288 26.5187 19.0047C26.4714 19.9419 26.3755 21.1095 26.1715 21.8911M17 10.7667L25.6877 21.7648M17 10.7667C17 10.7667 11.3295 10.7667 9.91546 11.1558M17 10.7667C17 10.7667 22.6705 10.7667 24.0845 11.1558L17 23.8M17 10.7667L16.9999 10.2667H16.9997H16.9988L16.9956 10.2667L16.9831 10.2667L16.9348 10.2668L16.7512 10.2674C16.5925 10.2682 16.3644 10.2697 16.0864 10.2728C15.5306 10.2789 14.7742 10.2911 13.9728 10.3155C13.1722 10.34 12.3226 10.3767 11.5816 10.4322C10.8551 10.4866 10.1895 10.5618 9.78281 10.6737M17 10.7667L7.82835 12.6756C8.08069 11.7066 8.82545 10.9365 9.78281 10.6737M26.1715 21.8911L25.6877 21.7648M26.1715 21.8911C26.1715 21.891 26.1716 21.8909 26.1716 21.8908L25.6877 21.7648M26.1715 21.8911C25.9191 22.8602 25.1742 23.6303 24.2168 23.8931M25.6877 21.7648C25.4792 22.5659 24.8647 23.1968 24.0845 23.411M24.2168 23.8931C24.2169 23.8931 24.217 23.8931 24.2171 23.8931L24.0845 23.411M24.2168 23.8931C23.8102 24.005 23.1447 24.0801 22.4183 24.1345C21.6774 24.19 20.8278 24.2267 20.0272 24.2511C19.2258 24.2756 18.4694 24.2878 17.9136 24.2939C17.6356 24.2969 17.4075 24.2985 17.2488 24.2992L17.0652 24.2999L17.0169 24.3L17.0044 24.3L17.0012 24.3H17.0003H17.0001L17 23.8M24.2168 23.8931L24.0845 23.411M24.0845 23.411L7.82827 21.8908M17 23.8C17 23.8 11.3295 23.8 9.91546 23.411M17 23.8L16.9999 24.3H16.9997H16.9988L16.9956 24.3L16.9831 24.3L16.9348 24.2999L16.7512 24.2992C16.5925 24.2985 16.3644 24.2969 16.0864 24.2939C15.5306 24.2878 14.7742 24.2756 13.9728 24.2511C13.1722 24.2267 12.3226 24.19 11.5816 24.1345C10.8551 24.0801 10.1895 24.005 9.78283 23.8931M9.91546 23.411C9.13516 23.1968 8.52068 22.5659 8.31215 21.7648C7.93333 20.3127 7.93333 17.2833 7.93333 17.2833M9.91546 23.411L9.7831 23.8931C9.78301 23.8931 9.78292 23.8931 9.78283 23.8931M9.91546 23.411L9.78283 23.8931M7.93333 17.2833C7.93333 17.2833 7.93333 14.2538 8.31215 12.8018C8.52068 12.0007 9.13516 11.3699 9.91546 11.1558M7.93333 17.2833L7.43333 17.2834V17.2836L7.43333 17.2841L7.43333 17.286L7.43335 17.2931L7.43343 17.3198L7.43409 17.4207C7.43484 17.5079 7.43635 17.6337 7.43934 17.789C7.44534 18.0994 7.45732 18.5288 7.48132 19.0047C7.52858 19.9418 7.62443 21.1092 7.82827 21.8908M7.93333 17.2833L7.43333 17.2832V17.2831L7.43333 17.2825L7.43333 17.2806L7.43335 17.2736L7.43343 17.2469L7.43409 17.146C7.43484 17.0588 7.43635 16.933 7.43934 16.7776C7.44534 16.4672 7.45732 16.0378 7.48132 15.5619C7.52858 14.6248 7.62443 13.4574 7.82827 12.6759V21.8908M9.91546 11.1558L9.78314 10.6736C9.78303 10.6736 9.78292 10.6736 9.78281 10.6737M9.91546 11.1558L9.78281 10.6737M7.82827 21.8908C8.08055 22.86 8.82539 23.6301 9.78283 23.8931M7.82827 21.8908L8.31204 21.7648L7.82834 21.891C7.82832 21.8909 7.8283 21.8909 7.82827 21.8908ZM0.5 17C0.5 7.88733 7.88733 0.5 17 0.5C26.1127 0.5 33.5 7.88733 33.5 17C33.5 26.1127 26.1127 33.5 17 33.5C7.88733 33.5 0.5 26.1127 0.5 17Z M18.89 17.5667L15.8001 19.4979V15.6355L18.89 17.5667Z" />
</svg>
