
<svg
   viewBox="0 0 45.333332 45.333332" fill="none"><defs
     id="defs6"><clipPath
       id="clipPath18"
       clipPathUnits="userSpaceOnUse"><path
         style="clip-rule:evenodd"
         id="path16"
         d="M 17,34 C 7.611183,34 0,26.388817 0,17 0,7.611185 7.611183,0 17,0 c 9.388815,0 17,7.611185 17,17 0,9.388817 -7.611185,17 -17,17 z m 7.084465,-11.155754 c 0.78023,-0.214129 1.394709,-0.844971 1.603243,-1.646095 0.378958,-1.451943 0.378958,-4.481484 0.378958,-4.481484 0,0 0,-3.0294 -0.378958,-4.481483 C 25.479174,11.434059 24.864695,10.803217 24.084465,10.589018 22.67049,10.200001 17,10.200003 17,10.200003 c 0,0 -5.670492,-2e-6 -7.084538,0.389015 -0.7803,0.214199 -1.394779,0.845041 -1.603312,1.646166 -0.378817,1.452083 -0.378817,4.481483 -0.378817,4.481483 0,0 0,3.029541 0.378817,4.481484 0.208533,0.801124 0.823012,1.431966 1.603312,1.646095 C 11.329508,23.233334 17,23.233334 17,23.233334 c 0,0 5.67049,0 7.084465,-0.389088 z" /></clipPath><clipPath
       id="clipPath30"
       clipPathUnits="userSpaceOnUse"><path
         style="clip-rule:evenodd"
         id="path28"
         d="m 15.300079,13.599995 v 5.666668 l 4.533337,-2.833407 z" /></clipPath></defs><g
     transform="matrix(1.3333333,0,0,-1.3333333,0,45.333333)"
     id="g10"><g
       id="g12"><g
         clip-path="url(#clipPath18)"
         id="g14"><g
           id="g20"><path
             id="path22"
             style="fill:currentColor;fill-opacity:1;fill-rule:nonzero;stroke:none"
             d="m 24.084465,22.844246 -0.265312,-0.964163 6.54e-4,-1.79e-4 z m 1.603243,-1.646095 -0.967753,-0.251908 1.66e-4,-6.33e-4 z m 0.378958,-4.481484 h -1 v 0 z m -0.378958,-4.481483 -0.967592,0.252517 -1.61e-4,-6.12e-4 z m -1.603243,-1.646166 -0.26474,0.964319 -5.26e-4,-1.45e-4 z M 17,10.200003 v 1 0 z m -7.084538,0.389015 0.265255,0.964178 -5.38e-4,1.47e-4 z m -1.603312,1.646166 0.967752,0.251905 -1.37e-4,5.25e-4 z m -0.378817,4.481483 h -1 v 0 z m 0.378817,4.481484 0.967609,-0.252453 1.43e-4,5.45e-4 z m 1.603312,1.646095 0.264636,-0.964348 6.63e-4,1.83e-4 z M 17,23.233334 v 1 0 z M 17,35 C 7.058898,35 -1,26.941101 -1,17 h 2 c 0,8.836533 7.163468,16 16,16 z M -1,17 C -1,7.058899 7.058898,-1 17,-1 V 1 C 8.163468,1 1,8.163469 1,17 Z M 17,-1 c 9.941101,0 18,8.058899 18,18 H 33 C 33,8.163469 25.836531,1 17,1 Z m 18,18 c 0,9.941101 -8.058899,18 -18,18 v -2 c 8.836531,0 16,-7.163467 16,-16 z m -11.180193,4.879904 c 0.425615,-0.116808 0.779146,-0.468806 0.900148,-0.933661 l 1.935503,0.503813 c -0.296064,1.137396 -1.171493,2.047083 -2.306335,2.358532 z m 0.900314,-0.934294 c 0.160489,-0.614897 0.252901,-1.640728 0.300446,-2.583069 0.02303,-0.456522 0.03459,-0.869856 0.04036,-1.169122 0.0029,-0.149418 0.0043,-0.269854 0.005,-0.352379 3.57e-4,-0.04125 5.32e-4,-0.07299 6.2e-4,-0.0941 4.2e-5,-0.01055 6.5e-5,-0.01845 7.4e-5,-0.02354 6e-6,-0.0025 8e-6,-0.0044 8e-6,-0.0055 2e-6,-5.64e-4 2e-6,-9.5e-4 2e-6,-0.0012 0,-1.01e-4 0,-1.56e-4 0,-1.68e-4 0,-3e-6 0,2.3e-5 0,1.9e-5 0,3.9e-5 0,8.8e-5 1,8.8e-5 1,0 1,7.3e-5 1,1.57e-4 0,4.3e-5 0,1.41e-4 0,2.27e-4 0,1.73e-4 0,3.94e-4 0,6.61e-4 0,5.33e-4 -2e-6,0.0012 -2e-6,0.0021 -2e-6,0.0018 -6e-6,0.0043 -1.2e-5,0.0075 -1.3e-5,0.0065 -3.8e-5,0.01576 -8.7e-5,0.02775 -10e-5,0.02398 -2.94e-4,0.05874 -6.78e-4,0.103168 -7.66e-4,0.08883 -0.0023,0.216414 -0.0053,0.373703 -0.0061,0.314146 -0.0182,0.748942 -0.04253,1.231299 -0.04719,0.935415 -0.14426,2.150326 -0.362731,2.987371 z m 1.346545,-4.228943 c -1,0 -1,5e-5 -1,8.8e-5 0,-2e-6 0,2.5e-5 0,1.9e-5 0,-10e-6 0,-6.7e-5 0,-1.68e-4 0,-2.02e-4 0,-5.87e-4 -2e-6,-0.0011 0,-0.0011 -2e-6,-0.003 -8e-6,-0.0055 -9e-6,-0.0051 -3.2e-5,-0.01299 -7.4e-5,-0.02354 -8.8e-5,-0.02111 -2.63e-4,-0.05285 -6.2e-4,-0.0941 -7.12e-4,-0.08252 -0.0021,-0.202951 -0.005,-0.352363 -0.0058,-0.299256 -0.01733,-0.712578 -0.04036,-1.16909 C 24.973062,14.1286 24.880646,13.10275 24.720151,12.487767 L 26.6553,11.982666 c 0.218462,0.837099 0.315529,2.051992 0.362724,2.9874 0.02434,0.482348 0.03647,0.917131 0.04253,1.231266 0.003,0.157284 0.0046,0.284868 0.0053,0.37369 3.84e-4,0.04442 5.78e-4,0.07919 6.78e-4,0.103164 4.9e-5,0.01199 7.4e-5,0.02128 8.7e-5,0.02774 6e-6,0.0032 10e-6,0.0057 1.2e-5,0.0075 0,8.97e-4 2e-6,0.0016 2e-6,0.0021 0,2.65e-4 0,4.86e-4 0,6.6e-4 0,8.8e-5 0,1.83e-4 0,2.27e-4 0,8.4e-5 0,1.56e-4 -1,1.56e-4 z m -1.346711,-4.229578 c -0.120998,-0.464842 -0.474536,-0.816885 -0.90023,-0.933752 l 0.52948,-1.92864 c 1.134766,0.311533 2.010185,1.221172 2.306253,2.358579 z m -0.900756,-0.933897 c -0.247166,-0.068 -0.774626,-0.136577 -1.512886,-0.191868 -0.709507,-0.05314 -1.53442,-0.08905 -2.324807,-0.113161 -0.78874,-0.02406 -1.534889,-0.03611 -2.084375,-0.04214 -0.274538,-0.003 -0.499493,-0.0045 -0.655531,-0.0053 -0.07801,-3.75e-4 -0.138761,-5.62e-4 -0.17984,-6.56e-4 -0.02054,-4.6e-5 -0.03616,-7e-5 -0.04655,-8.2e-5 -0.0052,-6e-6 -0.0091,-7e-6 -0.01164,-9e-6 -0.0013,0 -0.0022,0 -0.0028,0 -2.98e-4,0 -5.11e-4,0 -6.39e-4,0 -6.3e-5,0 -9.5e-5,0 -1.26e-4,0 -9e-6,0 2e-6,0 2e-6,-1 0,-1 5.5e-5,-1 1.32e-4,-1 5.3e-5,0 1.52e-4,0 2.61e-4,0 2.17e-4,0 5.21e-4,0 9.1e-4,0 7.78e-4,0 0.0019,0 0.0034,0 0.0029,2e-6 0.0072,5e-6 0.01275,1.1e-5 0.01115,1.2e-5 0.02755,3.6e-5 0.04889,8.6e-5 0.04267,9.5e-5 0.105127,2.88e-4 0.184934,6.73e-4 0.15959,7.69e-4 0.388689,0.0023 0.667855,0.00537 0.557916,0.00612 1.317762,0.018381 2.123392,0.042951 0.803983,0.024521 1.661811,0.061545 2.413204,0.117817 0.722637,0.054121 1.434229,0.131426 1.89405,0.257933 l -0.530532,1.92835 z M 17,10.200003 c 0,1 1.1e-5,1 2e-6,1 -3.3e-5,0 -6.3e-5,0 -1.28e-4,0 -1.28e-4,0 -3.39e-4,0 -6.39e-4,0 -5.97e-4,0 -0.0015,0 -0.0028,0 -0.0025,2e-6 -0.0064,3e-6 -0.01164,9e-6 -0.01039,1.2e-5 -0.02601,3.6e-5 -0.04655,8.2e-5 -0.04108,9.4e-5 -0.101833,2.81e-4 -0.179842,6.56e-4 -0.156038,7.52e-4 -0.380993,0.0023 -0.655531,0.0053 -0.549487,0.006 -1.29564,0.01809 -2.084385,0.04214 -0.79039,0.02411 -1.61531,0.06002 -2.324828,0.113161 -0.738266,0.05529 -1.265748,0.123867 -1.512937,0.191872 L 9.650208,9.624838 c 0.459833,-0.126503 1.17143,-0.203808 1.894081,-0.257929 0.751401,-0.056272 1.609235,-0.093296 2.413224,-0.117817 0.805634,-0.02457 1.565482,-0.036827 2.123401,-0.042951 0.279165,-0.00307 0.508264,-0.0046 0.667856,-0.00537 0.07981,-3.85e-4 0.142259,-5.78e-4 0.184934,-6.73e-4 0.02134,-5e-5 0.03773,-7.4e-5 0.04888,-8.6e-5 0.0056,-6e-6 0.0098,-9e-6 0.01275,-1.1e-5 0.0015,0 0.0026,0 0.0034,0 3.87e-4,0 6.93e-4,0 9.1e-4,0 1.09e-4,0 2.06e-4,0 2.61e-4,0 7.7e-5,0 1.32e-4,0 1.32e-4,1 z m -6.819821,1.35334 C 9.75442,11.670218 9.400897,12.022261 9.279902,12.487089 L 7.344398,11.983276 C 7.64047,10.845856 8.515903,9.936216 9.650745,9.624691 Z m -0.900414,0.934271 c -0.160445,0.615019 -0.252823,1.640901 -0.300349,2.583213 -0.023025,0.456519 -0.034575,0.869845 -0.04035,1.169104 -0.00288,0.149412 -0.00432,0.269844 -0.00503,0.352368 -3.55e-4,0.04125 -5.31e-4,0.07299 -6.18e-4,0.09409 -4.4e-5,0.01055 -6.5e-5,0.01845 -7.4e-5,0.02354 -6e-6,0.0025 -8e-6,0.0044 -9e-6,0.0055 -10e-7,5.65e-4 -10e-7,9.5e-4 -10e-7,0.0012 0,1.01e-4 0,1.58e-4 0,1.68e-4 0,6e-6 0,-2.1e-5 0,-1.9e-5 0,-3.8e-5 0,-8.8e-5 -1,-8.8e-5 -1,0 -1,-7.2e-5 -1,-1.56e-4 0,-4.4e-5 0,-1.39e-4 0,-2.27e-4 0,-1.74e-4 0,-3.95e-4 0,-6.6e-4 0,-5.32e-4 10e-7,-0.0012 2e-6,-0.0021 2e-6,-0.0018 5e-6,-0.0043 1.2e-5,-0.0075 1.3e-5,-0.0065 3.8e-5,-0.01575 8.7e-5,-0.02774 9.8e-5,-0.02398 2.92e-4,-0.05874 6.76e-4,-0.103162 7.67e-4,-0.08882 0.00229,-0.216404 0.00533,-0.373686 0.00606,-0.314133 0.018189,-0.748911 0.042517,-1.231255 0.047178,-0.935407 0.144208,-2.150267 0.36258,-2.987331 l 1.93523,0.50486 z m -1.346432,4.229053 c 1,0 1,-4.9e-5 1,-8.8e-5 0,2e-6 0,-2.4e-5 0,-1.9e-5 0,1.2e-5 0,6.7e-5 0,1.68e-4 0,2.02e-4 0,5.88e-4 1e-6,0.0012 10e-7,0.0011 3e-6,0.003 9e-6,0.0055 9e-6,0.0051 3e-5,0.01299 7.4e-5,0.02354 8.7e-5,0.02111 2.63e-4,0.05285 6.18e-4,0.0941 7.14e-4,0.08253 0.00215,0.202963 0.00503,0.352381 0.00577,0.299271 0.017325,0.71261 0.04035,1.169136 0.047526,0.942341 0.139906,1.968205 0.300343,2.583138 l -1.935217,0.50488 C 7.126162,20.613594 7.029132,19.398716 6.981955,18.463303 6.957627,17.980949 6.945501,17.546158 6.939438,17.232016 c -0.00303,-0.15729 -0.00456,-0.284878 -0.00533,-0.373701 -3.84e-4,-0.04443 -5.78e-4,-0.07919 -6.76e-4,-0.103167 -4.9e-5,-0.01199 -7.4e-5,-0.02128 -8.7e-5,-0.02774 -7e-6,-0.0032 -1e-5,-0.0058 -1.2e-5,-0.0075 -1e-6,-8.98e-4 -2e-6,-0.0016 -2e-6,-0.0021 0,-2.65e-4 0,-4.86e-4 0,-6.59e-4 0,-8.6e-5 0,-1.84e-4 0,-2.27e-4 0,-8.4e-5 0,-1.57e-4 1,-1.57e-4 z m 1.346569,4.229576 c 0.120998,0.46484 0.474514,0.81684 0.900196,0.933655 L 9.650826,23.808594 C 8.515908,23.49715 7.640467,22.587467 7.344398,21.450056 Z m 0.900859,0.933838 c 0.247174,0.06801 0.774639,0.136601 1.512906,0.1919 0.709514,0.05315 1.534433,0.08907 2.324821,0.113181 0.788744,0.02406 1.534895,0.03612 2.084381,0.04215 0.274538,0.003 0.499493,0.0045 0.655531,0.0053 0.07801,3.74e-4 0.138761,5.63e-4 0.17984,6.56e-4 0.02054,4.6e-5 0.03616,6.9e-5 0.04655,8e-5 0.0052,6e-6 0.0091,8e-6 0.01164,1.2e-5 0.0013,0 0.0022,0 0.0028,0 3e-4,0 5.13e-4,0 6.39e-4,0 6.5e-5,0 9.5e-5,0 1.28e-4,0 9e-6,0 -2e-6,0 -2e-6,1 0,1 -5.5e-5,1 -1.32e-4,1 -5.5e-5,0 -1.54e-4,0 -2.63e-4,0 -2.17e-4,0 -5.21e-4,0 -9.1e-4,0 -7.78e-4,0 -0.0019,0 -0.0034,-2e-6 -0.0029,-2e-6 -0.0072,-4e-6 -0.01275,-10e-6 -0.01115,-1.3e-5 -0.02755,-3.8e-5 -0.04888,-8.6e-5 -0.04267,-9.7e-5 -0.105129,-2.9e-4 -0.184936,-6.73e-4 -0.159592,-7.71e-4 -0.388691,-0.0023 -0.667856,-0.0054 -0.55792,-0.0061 -1.317769,-0.01839 -2.123405,-0.04296 -0.803989,-0.02453 -1.661828,-0.06156 -2.413232,-0.117838 -0.72265,-0.05413 -1.434263,-0.131451 -1.894112,-0.257982 l 0.530598,-1.928332 z M 17,23.233334 c 0,-1 -1.3e-5,-1 -2e-6,-1 3.1e-5,0 6.3e-5,0 1.26e-4,0 1.28e-4,0 3.41e-4,0 6.39e-4,0 5.97e-4,0 0.0015,0 0.0028,0 0.0025,-4e-6 0.0064,-6e-6 0.01164,-1.2e-5 0.01039,-1.1e-5 0.02601,-3.4e-5 0.04655,-8e-5 0.04108,-9.3e-5 0.101833,-2.82e-4 0.179842,-6.56e-4 0.156036,-7.52e-4 0.380991,-0.0023 0.655527,-0.0053 0.549486,-0.006 1.295635,-0.01809 2.084374,-0.04215 0.790384,-0.02411 1.615295,-0.06003 2.324798,-0.113181 0.73826,-0.0553 1.265705,-0.123888 1.512854,-0.191898 l 0.530622,1.928326 c -0.459837,0.126535 -1.171444,0.203855 -1.894081,0.257986 -0.751394,0.05628 -1.609226,0.09331 -2.413212,0.117838 -0.805631,0.02458 -1.565477,0.03684 -2.123396,0.04296 -0.279165,0.0031 -0.508264,0.0046 -0.667856,0.0054 -0.07981,3.83e-4 -0.142259,5.76e-4 -0.184934,6.73e-4 -0.02134,4.8e-5 -0.03774,7.3e-5 -0.04888,8.6e-5 -0.0056,6e-6 -0.0098,8e-6 -0.01275,10e-6 -0.0015,2e-6 -0.0026,2e-6 -0.0034,2e-6 -3.89e-4,0 -6.93e-4,0 -9.1e-4,0 -1.09e-4,0 -2.08e-4,0 -2.61e-4,0 -7.7e-5,0 -1.32e-4,0 -1.32e-4,-1 z" /></g></g></g><g
       id="g24"><g
         clip-path="url(#clipPath30)"
         id="g26"><g
           transform="translate(15.300079,13.600006)"
           id="g32"><path
             id="path34"
             style="fill:currentColor;fill-opacity:1;fill-rule:nonzero;stroke:none"
             d="m 0,-1.2e-5 h -1 v -1.804224 l 1.529989,0.956219 z M 0,5.666656 0.530009,6.514649 -1,7.470928 V 5.666656 Z M 4.533336,2.833251 5.063325,1.985246 6.420132,2.833229 5.063344,3.681243 Z M 1,-1.2e-5 V 5.666656 H -1 V -1.2e-5 Z M -0.530009,4.818664 4.003327,1.985258 5.063344,3.681243 0.530009,6.514649 Z M 4.003346,3.681255 -0.529989,0.847992 0.529989,-0.848017 5.063325,1.985246 Z" /></g></g></g></g></svg>